<mxfile host="Electron" modified="2024-05-16T14:14:35.968Z" agent="Mozilla/5.0 (X11; Linux x86_64) AppleWebKit/537.36 (KHTML, like Gecko) draw.io/24.2.5 Chrome/120.0.6099.109 Electron/28.1.0 Safari/537.36" etag="gzCWpcXA4E34FK5IBDZA" version="24.2.5" type="device">
  <diagram name="第 1 页" id="pkB_VXY0mXBjEQYdxfJV">
    <mxGraphModel dx="1903" dy="1154" grid="1" gridSize="10" guides="1" tooltips="1" connect="1" arrows="1" fold="1" page="1" pageScale="1" pageWidth="1100" pageHeight="850" math="0" shadow="0">
      <root>
        <mxCell id="0" />
        <mxCell id="1" parent="0" />
        <mxCell id="4iuUuKdbxl8gIZwIrT_o-54" value="" style="shape=curlyBracket;whiteSpace=wrap;html=1;rounded=1;labelPosition=left;verticalLabelPosition=middle;align=right;verticalAlign=middle;strokeColor=#36393d;strokeWidth=2;fontFamily=Helvetica;fontSize=11;fontColor=default;labelBackgroundColor=default;fillColor=#ffff88;" parent="1" vertex="1">
          <mxGeometry x="350" y="41.5" width="20" height="500" as="geometry" />
        </mxCell>
        <mxCell id="4iuUuKdbxl8gIZwIrT_o-1" value="&lt;div style=&quot;font-family: Consolas, &amp;quot;Courier New&amp;quot;, monospace; font-size: 14px; line-height: 19px; white-space: pre;&quot;&gt;&lt;span style=&quot;font-family: &amp;quot;Droid Sans Mono&amp;quot;, &amp;quot;monospace&amp;quot;, monospace;&quot;&gt;MistralModel&lt;/span&gt;&lt;span style=&quot;font-family: &amp;quot;Droid Sans Mono&amp;quot;, &amp;quot;monospace&amp;quot;, monospace;&quot;&gt;(&lt;/span&gt;&lt;span style=&quot;font-family: &amp;quot;Droid Sans Mono&amp;quot;, &amp;quot;monospace&amp;quot;, monospace;&quot;&gt;MistralPreTrainedModel&lt;/span&gt;&lt;span style=&quot;font-family: &amp;quot;Droid Sans Mono&amp;quot;, &amp;quot;monospace&amp;quot;, monospace;&quot;&gt;)&lt;/span&gt;&lt;span style=&quot;&quot;&gt;.&lt;/span&gt;&lt;/div&gt;&lt;div style=&quot;font-family: Consolas, &amp;quot;Courier New&amp;quot;, monospace; font-size: 14px; line-height: 19px; white-space: pre;&quot;&gt;&lt;span style=&quot;&quot;&gt;forward(input_ids)&lt;/span&gt;&lt;/div&gt;" style="rounded=1;whiteSpace=wrap;html=1;fillColor=#cdeb8b;strokeColor=#36393d;fontColor=default;labelBackgroundColor=none;align=left;" parent="1" vertex="1">
          <mxGeometry x="40" y="280" width="310" height="40" as="geometry" />
        </mxCell>
        <mxCell id="4iuUuKdbxl8gIZwIrT_o-23" style="edgeStyle=orthogonalEdgeStyle;rounded=0;orthogonalLoop=1;jettySize=auto;html=1;entryX=0.5;entryY=0;entryDx=0;entryDy=0;strokeColor=default;strokeWidth=2;align=center;verticalAlign=middle;fontFamily=Helvetica;fontSize=11;fontColor=default;labelBackgroundColor=default;endArrow=classic;" parent="1" source="4iuUuKdbxl8gIZwIrT_o-2" target="4iuUuKdbxl8gIZwIrT_o-3" edge="1">
          <mxGeometry relative="1" as="geometry" />
        </mxCell>
        <mxCell id="qGL5-rrdzSUx7QEBZHQM-1" value="" style="edgeStyle=orthogonalEdgeStyle;rounded=0;orthogonalLoop=1;jettySize=auto;html=1;" parent="1" source="4iuUuKdbxl8gIZwIrT_o-2" target="4iuUuKdbxl8gIZwIrT_o-5" edge="1">
          <mxGeometry relative="1" as="geometry" />
        </mxCell>
        <mxCell id="4iuUuKdbxl8gIZwIrT_o-2" value="&lt;div style=&quot;font-family: Consolas, &amp;quot;Courier New&amp;quot;, monospace; font-weight: normal; font-size: 14px; line-height: 19px; white-space: pre;&quot;&gt;&lt;div&gt;&lt;span style=&quot;&quot;&gt;nn.Embedding(&lt;/span&gt;&lt;span style=&quot;background-color: initial;&quot;&gt;)&lt;/span&gt;&lt;/div&gt;&lt;/div&gt;" style="rounded=1;whiteSpace=wrap;html=1;labelBackgroundColor=none;fillColor=#cce5ff;strokeColor=#36393d;" parent="1" vertex="1">
          <mxGeometry x="445" y="40" width="120" height="30" as="geometry" />
        </mxCell>
        <mxCell id="4iuUuKdbxl8gIZwIrT_o-24" style="edgeStyle=orthogonalEdgeStyle;rounded=0;orthogonalLoop=1;jettySize=auto;html=1;entryX=0.5;entryY=0;entryDx=0;entryDy=0;strokeColor=default;strokeWidth=2;align=center;verticalAlign=middle;fontFamily=Helvetica;fontSize=11;fontColor=default;labelBackgroundColor=default;endArrow=classic;" parent="1" source="4iuUuKdbxl8gIZwIrT_o-3" target="4iuUuKdbxl8gIZwIrT_o-5" edge="1">
          <mxGeometry relative="1" as="geometry" />
        </mxCell>
        <mxCell id="4iuUuKdbxl8gIZwIrT_o-3" value="&lt;div style=&quot;font-family: Consolas, &amp;quot;Courier New&amp;quot;, monospace; font-weight: normal; font-size: 14px; line-height: 19px; white-space: pre;&quot;&gt;&lt;div&gt;&lt;span style=&quot;&quot;&gt;inputs_embeds&lt;/span&gt;&lt;/div&gt;&lt;/div&gt;" style="rounded=1;whiteSpace=wrap;html=1;labelBackgroundColor=none;fillColor=#ffff88;strokeColor=#36393d;strokeWidth=1;" parent="1" vertex="1">
          <mxGeometry x="445" y="110" width="120" height="30" as="geometry" />
        </mxCell>
        <mxCell id="4iuUuKdbxl8gIZwIrT_o-25" style="edgeStyle=orthogonalEdgeStyle;rounded=0;orthogonalLoop=1;jettySize=auto;html=1;entryX=0.5;entryY=0;entryDx=0;entryDy=0;strokeColor=default;strokeWidth=2;align=center;verticalAlign=middle;fontFamily=Helvetica;fontSize=11;fontColor=default;labelBackgroundColor=default;endArrow=classic;" parent="1" source="4iuUuKdbxl8gIZwIrT_o-5" target="4iuUuKdbxl8gIZwIrT_o-6" edge="1">
          <mxGeometry relative="1" as="geometry" />
        </mxCell>
        <mxCell id="4iuUuKdbxl8gIZwIrT_o-5" value="&lt;div style=&quot;font-family: Consolas, &amp;quot;Courier New&amp;quot;, monospace; font-size: 14px; line-height: 19px; white-space: pre;&quot;&gt;&lt;div style=&quot;line-height: 19px;&quot;&gt;get `position_ids` &lt;/div&gt;&lt;div style=&quot;line-height: 19px;&quot;&gt;and `attention_mask`&lt;/div&gt;&lt;div style=&quot;line-height: 19px;&quot;&gt;and `past_key_values`&lt;/div&gt;&lt;/div&gt;" style="rounded=1;whiteSpace=wrap;html=1;fillColor=#cdeb8b;strokeColor=#36393d;fontColor=default;labelBackgroundColor=none;align=left;" parent="1" vertex="1">
          <mxGeometry x="415" y="180" width="180" height="60" as="geometry" />
        </mxCell>
        <mxCell id="4iuUuKdbxl8gIZwIrT_o-6" value="&lt;div style=&quot;font-family: Consolas, &amp;quot;Courier New&amp;quot;, monospace; font-size: 14px; line-height: 19px; white-space: pre;&quot;&gt;hidden_states = inputs_embeds&lt;/div&gt;" style="rounded=1;whiteSpace=wrap;html=1;fontFamily=Helvetica;fontSize=11;labelBackgroundColor=none;fillColor=#ffff88;strokeColor=#36393d;" parent="1" vertex="1">
          <mxGeometry x="382.5" y="280" width="245" height="30" as="geometry" />
        </mxCell>
        <mxCell id="4iuUuKdbxl8gIZwIrT_o-52" style="edgeStyle=orthogonalEdgeStyle;rounded=0;orthogonalLoop=1;jettySize=auto;html=1;entryX=0.5;entryY=0;entryDx=0;entryDy=0;strokeColor=default;strokeWidth=2;align=center;verticalAlign=middle;fontFamily=Helvetica;fontSize=11;fontColor=default;labelBackgroundColor=default;endArrow=classic;" parent="1" source="4iuUuKdbxl8gIZwIrT_o-7" target="4iuUuKdbxl8gIZwIrT_o-9" edge="1">
          <mxGeometry relative="1" as="geometry">
            <Array as="points">
              <mxPoint x="505" y="440" />
              <mxPoint x="505" y="440" />
            </Array>
          </mxGeometry>
        </mxCell>
        <mxCell id="4iuUuKdbxl8gIZwIrT_o-7" value="&lt;div style=&quot;font-size: 12px;&quot;&gt;&lt;div style=&quot;font-family: Consolas, &amp;quot;Courier New&amp;quot;, monospace; font-size: 14px; line-height: 19px; white-space: pre;&quot;&gt;&lt;div&gt;layer_outputs = &lt;span style=&quot;font-family: &amp;quot;Droid Sans Mono&amp;quot;, &amp;quot;monospace&amp;quot;, monospace;&quot;&gt;MistralDecoderLayer&lt;/span&gt;&lt;span style=&quot;&quot;&gt;(&lt;/span&gt;&lt;span style=&quot;&quot;&gt;config, layer_idx&lt;/span&gt;&lt;span style=&quot;&quot;&gt;)&lt;/span&gt;&lt;span style=&quot;&quot;&gt;.&lt;/span&gt;&lt;br&gt;&lt;/div&gt;&lt;div&gt;&lt;span style=&quot;&quot;&gt;forward(hidden_states,&lt;/span&gt;attention_mask&lt;span style=&quot;&quot;&gt;,&lt;/span&gt;&lt;/div&gt;&lt;div&gt;&lt;span style=&quot;&quot;&gt;position_ids,past_key_values,...&lt;/span&gt;&lt;span style=&quot;&quot;&gt;)&lt;/span&gt;&lt;/div&gt;&lt;div&gt;hidden_states = layer_outputs[&lt;span style=&quot;&quot;&gt;0&lt;/span&gt;]&lt;/div&gt;&lt;/div&gt;&lt;/div&gt;" style="rounded=1;whiteSpace=wrap;html=1;fontFamily=Courier New;fontSize=11;labelBackgroundColor=none;align=left;fillColor=#cce5ff;strokeColor=#36393d;fontColor=default;" parent="1" vertex="1">
          <mxGeometry x="377.5" y="350" width="467.5" height="80" as="geometry" />
        </mxCell>
        <mxCell id="4iuUuKdbxl8gIZwIrT_o-39" style="edgeStyle=orthogonalEdgeStyle;rounded=0;orthogonalLoop=1;jettySize=auto;html=1;entryX=0.5;entryY=0;entryDx=0;entryDy=0;strokeColor=default;strokeWidth=2;align=center;verticalAlign=middle;fontFamily=Helvetica;fontSize=11;fontColor=default;labelBackgroundColor=default;endArrow=classic;" parent="1" source="4iuUuKdbxl8gIZwIrT_o-9" target="4iuUuKdbxl8gIZwIrT_o-38" edge="1">
          <mxGeometry relative="1" as="geometry" />
        </mxCell>
        <mxCell id="4iuUuKdbxl8gIZwIrT_o-9" value="&lt;div style=&quot;font-family: Consolas, &amp;quot;Courier New&amp;quot;, monospace; font-size: 14px; line-height: 19px; white-space: pre;&quot;&gt;&lt;div style=&quot;line-height: 19px;&quot;&gt;&lt;span style=&quot;font-family: &amp;quot;Droid Sans Mono&amp;quot;, &amp;quot;monospace&amp;quot;, monospace;&quot;&gt;MistralRMSNorm&lt;/span&gt;&lt;span style=&quot;text-align: center;&quot;&gt;()&lt;/span&gt;&lt;br&gt;&lt;/div&gt;&lt;/div&gt;" style="rounded=1;whiteSpace=wrap;html=1;fillColor=#cce5ff;strokeColor=#36393d;labelBackgroundColor=none;align=left;fontColor=default;" parent="1" vertex="1">
          <mxGeometry x="435" y="470" width="140" height="30" as="geometry" />
        </mxCell>
        <mxCell id="4iuUuKdbxl8gIZwIrT_o-28" style="edgeStyle=orthogonalEdgeStyle;rounded=0;orthogonalLoop=1;jettySize=auto;html=1;entryX=0.5;entryY=0;entryDx=0;entryDy=0;strokeColor=default;strokeWidth=2;align=center;verticalAlign=middle;fontFamily=Helvetica;fontSize=11;fontColor=default;labelBackgroundColor=default;endArrow=classic;" parent="1" source="4iuUuKdbxl8gIZwIrT_o-11" target="4iuUuKdbxl8gIZwIrT_o-12" edge="1">
          <mxGeometry relative="1" as="geometry" />
        </mxCell>
        <mxCell id="4iuUuKdbxl8gIZwIrT_o-32" style="edgeStyle=orthogonalEdgeStyle;rounded=0;orthogonalLoop=1;jettySize=auto;html=1;entryX=0;entryY=0.5;entryDx=0;entryDy=0;strokeColor=default;strokeWidth=2;align=center;verticalAlign=middle;fontFamily=Helvetica;fontSize=11;fontColor=default;labelBackgroundColor=default;endArrow=classic;" parent="1" source="4iuUuKdbxl8gIZwIrT_o-11" target="4iuUuKdbxl8gIZwIrT_o-15" edge="1">
          <mxGeometry relative="1" as="geometry">
            <Array as="points">
              <mxPoint x="1040" y="85" />
              <mxPoint x="1040" y="285" />
            </Array>
          </mxGeometry>
        </mxCell>
        <mxCell id="4iuUuKdbxl8gIZwIrT_o-11" value="&lt;div style=&quot;font-family: Consolas, &amp;quot;Courier New&amp;quot;, monospace; font-weight: normal; font-size: 14px; line-height: 19px; white-space: pre;&quot;&gt;&lt;div style=&quot;line-height: 19px;&quot;&gt;hidden_states&lt;/div&gt;&lt;/div&gt;" style="rounded=1;whiteSpace=wrap;html=1;labelBackgroundColor=none;fillColor=#ffff88;strokeColor=#36393d;fontColor=default;" parent="1" vertex="1">
          <mxGeometry x="890.95" y="70" width="120" height="30" as="geometry" />
        </mxCell>
        <mxCell id="4iuUuKdbxl8gIZwIrT_o-29" style="edgeStyle=orthogonalEdgeStyle;rounded=0;orthogonalLoop=1;jettySize=auto;html=1;entryX=0.5;entryY=0;entryDx=0;entryDy=0;strokeColor=default;strokeWidth=2;align=center;verticalAlign=middle;fontFamily=Helvetica;fontSize=11;fontColor=default;labelBackgroundColor=default;endArrow=classic;" parent="1" source="4iuUuKdbxl8gIZwIrT_o-12" target="4iuUuKdbxl8gIZwIrT_o-13" edge="1">
          <mxGeometry relative="1" as="geometry" />
        </mxCell>
        <mxCell id="4iuUuKdbxl8gIZwIrT_o-12" value="&lt;div style=&quot;font-family: Consolas, &amp;quot;Courier New&amp;quot;, monospace; font-size: 14px; line-height: 19px; white-space: pre;&quot;&gt;&lt;span style=&quot;font-family: &amp;quot;Droid Sans Mono&amp;quot;, &amp;quot;monospace&amp;quot;, monospace;&quot;&gt;MistralRMSNorm&lt;/span&gt;()&lt;/div&gt;" style="rounded=1;whiteSpace=wrap;html=1;labelBackgroundColor=none;fillColor=#cce5ff;strokeColor=#36393d;fontColor=default;" parent="1" vertex="1">
          <mxGeometry x="881" y="140" width="140" height="30" as="geometry" />
        </mxCell>
        <mxCell id="4iuUuKdbxl8gIZwIrT_o-30" style="edgeStyle=orthogonalEdgeStyle;rounded=0;orthogonalLoop=1;jettySize=auto;html=1;entryX=0.5;entryY=0;entryDx=0;entryDy=0;strokeColor=default;strokeWidth=2;align=center;verticalAlign=middle;fontFamily=Helvetica;fontSize=11;fontColor=default;labelBackgroundColor=default;endArrow=classic;" parent="1" source="4iuUuKdbxl8gIZwIrT_o-13" target="4iuUuKdbxl8gIZwIrT_o-15" edge="1">
          <mxGeometry relative="1" as="geometry" />
        </mxCell>
        <mxCell id="4iuUuKdbxl8gIZwIrT_o-13" value="&lt;div style=&quot;font-family: Consolas, &amp;quot;Courier New&amp;quot;, monospace; font-size: 14px; line-height: 19px; white-space: pre;&quot;&gt;&lt;span style=&quot;font-family: &amp;quot;Droid Sans Mono&amp;quot;, &amp;quot;monospace&amp;quot;, monospace;&quot;&gt;MistralAttention&lt;/span&gt;()&lt;/div&gt;" style="rounded=1;whiteSpace=wrap;html=1;labelBackgroundColor=none;fillColor=#cce5ff;strokeColor=#36393d;fontColor=default;" parent="1" vertex="1">
          <mxGeometry x="874.95" y="210" width="153.05" height="30" as="geometry" />
        </mxCell>
        <mxCell id="SptYuZhbOM0Xcs1QpEUK-1" style="edgeStyle=orthogonalEdgeStyle;rounded=0;orthogonalLoop=1;jettySize=auto;html=1;entryX=0;entryY=0.5;entryDx=0;entryDy=0;strokeWidth=2;" parent="1" source="4iuUuKdbxl8gIZwIrT_o-15" target="4iuUuKdbxl8gIZwIrT_o-21" edge="1">
          <mxGeometry relative="1" as="geometry">
            <Array as="points">
              <mxPoint x="870" y="285" />
              <mxPoint x="870" y="490" />
            </Array>
          </mxGeometry>
        </mxCell>
        <mxCell id="4iuUuKdbxl8gIZwIrT_o-15" value="&lt;font style=&quot;font-size: 14px;&quot;&gt;+&lt;/font&gt;" style="ellipse;whiteSpace=wrap;html=1;aspect=fixed;rounded=1;strokeColor=default;align=center;verticalAlign=middle;fontFamily=Helvetica;fontSize=11;fontColor=default;labelBackgroundColor=none;fillColor=default;" parent="1" vertex="1">
          <mxGeometry x="935.95" y="270" width="30" height="30" as="geometry" />
        </mxCell>
        <mxCell id="4iuUuKdbxl8gIZwIrT_o-34" style="edgeStyle=orthogonalEdgeStyle;rounded=0;orthogonalLoop=1;jettySize=auto;html=1;entryX=0.5;entryY=0;entryDx=0;entryDy=0;strokeColor=default;strokeWidth=2;align=center;verticalAlign=middle;fontFamily=Helvetica;fontSize=11;fontColor=default;labelBackgroundColor=default;endArrow=classic;" parent="1" edge="1">
          <mxGeometry relative="1" as="geometry">
            <mxPoint x="955" y="369.5" as="sourcePoint" />
            <mxPoint x="950.9499999999998" y="409" as="targetPoint" />
          </mxGeometry>
        </mxCell>
        <mxCell id="4iuUuKdbxl8gIZwIrT_o-16" value="&lt;div style=&quot;font-family: Consolas, &amp;quot;Courier New&amp;quot;, monospace; font-size: 14px; line-height: 19px; white-space: pre;&quot;&gt;&lt;span style=&quot;font-family: &amp;quot;Droid Sans Mono&amp;quot;, &amp;quot;monospace&amp;quot;, monospace;&quot;&gt;MistralRMSNorm&lt;/span&gt;()&lt;br&gt;&lt;/div&gt;" style="rounded=1;whiteSpace=wrap;html=1;labelBackgroundColor=none;fillColor=#cce5ff;strokeColor=#36393d;fontColor=default;" parent="1" vertex="1">
          <mxGeometry x="880" y="340.5" width="150" height="30" as="geometry" />
        </mxCell>
        <mxCell id="4iuUuKdbxl8gIZwIrT_o-35" style="edgeStyle=orthogonalEdgeStyle;rounded=0;orthogonalLoop=1;jettySize=auto;html=1;entryX=0.5;entryY=0;entryDx=0;entryDy=0;strokeColor=default;strokeWidth=2;align=center;verticalAlign=middle;fontFamily=Helvetica;fontSize=11;fontColor=default;labelBackgroundColor=default;endArrow=classic;" parent="1" source="4iuUuKdbxl8gIZwIrT_o-17" target="4iuUuKdbxl8gIZwIrT_o-21" edge="1">
          <mxGeometry relative="1" as="geometry" />
        </mxCell>
        <mxCell id="4iuUuKdbxl8gIZwIrT_o-17" value="&lt;div style=&quot;font-family: Consolas, &amp;quot;Courier New&amp;quot;, monospace; font-size: 14px; line-height: 19px; white-space: pre;&quot;&gt;&lt;span style=&quot;font-family: &amp;quot;Droid Sans Mono&amp;quot;, &amp;quot;monospace&amp;quot;, monospace;&quot;&gt;MistralMLP&lt;/span&gt;&lt;span style=&quot;&quot;&gt;()&lt;/span&gt;&lt;br&gt;&lt;/div&gt;" style="rounded=1;whiteSpace=wrap;html=1;labelBackgroundColor=none;fillColor=#cce5ff;strokeColor=#36393d;fontColor=default;" parent="1" vertex="1">
          <mxGeometry x="900.95" y="410" width="100" height="30" as="geometry" />
        </mxCell>
        <mxCell id="4iuUuKdbxl8gIZwIrT_o-33" style="edgeStyle=orthogonalEdgeStyle;rounded=0;orthogonalLoop=1;jettySize=auto;html=1;entryX=0.5;entryY=0;entryDx=0;entryDy=0;strokeColor=default;strokeWidth=2;align=center;verticalAlign=middle;fontFamily=Helvetica;fontSize=11;fontColor=default;labelBackgroundColor=default;endArrow=classic;" parent="1" edge="1">
          <mxGeometry relative="1" as="geometry">
            <mxPoint x="951" y="301" as="sourcePoint" />
            <mxPoint x="950.9499999999998" y="339.5" as="targetPoint" />
          </mxGeometry>
        </mxCell>
        <mxCell id="4iuUuKdbxl8gIZwIrT_o-43" style="edgeStyle=orthogonalEdgeStyle;rounded=0;orthogonalLoop=1;jettySize=auto;html=1;entryX=0.5;entryY=0;entryDx=0;entryDy=0;strokeColor=default;strokeWidth=2;align=center;verticalAlign=middle;fontFamily=Helvetica;fontSize=11;fontColor=default;labelBackgroundColor=default;endArrow=classic;" parent="1" source="4iuUuKdbxl8gIZwIrT_o-21" target="4iuUuKdbxl8gIZwIrT_o-42" edge="1">
          <mxGeometry relative="1" as="geometry" />
        </mxCell>
        <mxCell id="4iuUuKdbxl8gIZwIrT_o-21" value="&lt;font style=&quot;font-size: 14px;&quot;&gt;+&lt;/font&gt;" style="ellipse;whiteSpace=wrap;html=1;aspect=fixed;rounded=1;strokeColor=default;align=center;verticalAlign=middle;fontFamily=Helvetica;fontSize=11;fontColor=default;labelBackgroundColor=none;fillColor=default;" parent="1" vertex="1">
          <mxGeometry x="935.95" y="475" width="30" height="30" as="geometry" />
        </mxCell>
        <mxCell id="4iuUuKdbxl8gIZwIrT_o-31" value="" style="shape=curlyBracket;whiteSpace=wrap;html=1;rounded=1;labelPosition=left;verticalLabelPosition=middle;align=right;verticalAlign=middle;strokeColor=#36393d;strokeWidth=2;fontFamily=Helvetica;fontSize=11;fontColor=default;labelBackgroundColor=default;fillColor=#ffff88;" parent="1" vertex="1">
          <mxGeometry x="845" y="176" width="20" height="411" as="geometry" />
        </mxCell>
        <mxCell id="4iuUuKdbxl8gIZwIrT_o-38" value="&lt;div style=&quot;font-family: Consolas, &amp;quot;Courier New&amp;quot;, monospace; font-weight: normal; font-size: 14px; line-height: 19px; white-space: pre;&quot;&gt;&lt;div style=&quot;line-height: 19px;&quot;&gt;return&lt;/div&gt;&lt;/div&gt;" style="rounded=1;whiteSpace=wrap;html=1;labelBackgroundColor=none;fillColor=#ffff88;strokeColor=#36393d;fontColor=default;" parent="1" vertex="1">
          <mxGeometry x="475" y="538.5" width="60" height="30" as="geometry" />
        </mxCell>
        <mxCell id="4iuUuKdbxl8gIZwIrT_o-40" value="&lt;font style=&quot;font-size: 21px;&quot;&gt;x&lt;/font&gt;" style="text;html=1;align=center;verticalAlign=middle;whiteSpace=wrap;rounded=0;fontFamily=Helvetica;fontSize=11;fontColor=default;labelBackgroundColor=none;" parent="1" vertex="1">
          <mxGeometry x="345" y="380" width="50" height="30" as="geometry" />
        </mxCell>
        <mxCell id="4iuUuKdbxl8gIZwIrT_o-42" value="&lt;div style=&quot;font-family: Consolas, &amp;quot;Courier New&amp;quot;, monospace; font-weight: normal; font-size: 14px; line-height: 19px; white-space: pre;&quot;&gt;&lt;div style=&quot;line-height: 19px;&quot;&gt;return &lt;/div&gt;&lt;div style=&quot;line-height: 19px;&quot;&gt;&lt;span style=&quot;&quot;&gt;(hidden_states,)&lt;/span&gt;&lt;/div&gt;&lt;/div&gt;" style="rounded=1;whiteSpace=wrap;html=1;labelBackgroundColor=none;fillColor=#ffff88;strokeColor=#36393d;fontColor=default;align=left;" parent="1" vertex="1">
          <mxGeometry x="882.2" y="542" width="137.49" height="45" as="geometry" />
        </mxCell>
        <mxCell id="4iuUuKdbxl8gIZwIrT_o-8" value="&lt;div style=&quot;font-family: Consolas, &amp;quot;Courier New&amp;quot;, monospace; font-size: 14px; line-height: 19px; white-space: pre;&quot;&gt;num_hidden_layers&lt;/div&gt;" style="rounded=1;whiteSpace=wrap;html=1;strokeColor=default;align=center;verticalAlign=middle;fontFamily=Helvetica;fontSize=11;fontColor=default;labelBackgroundColor=default;fillColor=default;" parent="1" vertex="1">
          <mxGeometry x="190" y="381.5" width="150" height="30" as="geometry" />
        </mxCell>
        <mxCell id="qGL5-rrdzSUx7QEBZHQM-4" style="edgeStyle=orthogonalEdgeStyle;rounded=0;orthogonalLoop=1;jettySize=auto;html=1;entryX=0.273;entryY=-0.005;entryDx=0;entryDy=0;entryPerimeter=0;strokeWidth=2;" parent="1" source="4iuUuKdbxl8gIZwIrT_o-6" target="4iuUuKdbxl8gIZwIrT_o-7" edge="1">
          <mxGeometry relative="1" as="geometry" />
        </mxCell>
        <mxCell id="SB8Q8OPEO0B05oPILvqi-1" value="&lt;div style=&quot;font-family: &amp;quot;Droid Sans Mono&amp;quot;, &amp;quot;monospace&amp;quot;, monospace; font-weight: normal; font-size: 14px; line-height: 19px; white-space: pre;&quot;&gt;&lt;div style=&quot;&quot;&gt;&lt;span style=&quot;color: rgb(78, 201, 176);&quot;&gt;MistralRMSNorm：&lt;/span&gt;&lt;span style=&quot;color: rgb(106, 153, 85);&quot;&gt;Copied from transformers.models.llama.modeling_llama.LlamaRMSNorm with Llama-&amp;gt;Mistral&lt;/span&gt;&lt;br&gt;&lt;/div&gt;&lt;div style=&quot;&quot;&gt;&lt;div style=&quot;color: rgb(204, 204, 204); background-color: rgb(31, 31, 31); line-height: 19px;&quot;&gt;&lt;span style=&quot;color: rgb(0, 0, 0); background-color: rgb(251, 251, 251); text-align: center;&quot;&gt;MistralMLP&lt;/span&gt;&lt;span style=&quot;color: rgb(0, 0, 0); background-color: rgb(251, 251, 251); font-family: Consolas, &amp;quot;Courier New&amp;quot;, monospace; text-align: center;&quot;&gt;与LlamaMLP的区别：&lt;/span&gt;&lt;span style=&quot;color: rgb(0, 0, 0); background-color: rgb(251, 251, 251); text-align: center;&quot;&gt;MistralMLP没有&lt;/span&gt;&lt;span style=&quot;color: rgb(0, 0, 0); background-color: rgb(251, 251, 251);&quot;&gt;pretraining_tp&amp;gt;1的判断以及条件成立后的操作&lt;/span&gt;&lt;span style=&quot;color: rgb(106, 153, 85);&quot;&gt;&lt;br&gt;&lt;/span&gt;&lt;/div&gt;&lt;/div&gt;&lt;/div&gt;" style="text;whiteSpace=wrap;html=1;" vertex="1" parent="1">
          <mxGeometry x="80" y="600" width="680" height="30" as="geometry" />
        </mxCell>
      </root>
    </mxGraphModel>
  </diagram>
</mxfile>
